<?xml version="1.0" encoding="UTF-8" standalone="no"?>
<!-- Created with Inkscape (http://www.inkscape.org/) -->

<svg width="90mm" height="45mm" viewBox="0 0 90 45" version="1.1"
  xmlns="http://www.w3.org/2000/svg"
  xmlns:svg="http://www.w3.org/2000/svg">
  <path style="opacity:1;fill:#004000;fill-opacity:1;stroke:none;stroke-width:1.99181;stroke-miterlimit:4;stroke-dasharray:none" id="large-star" transform="matrix(0.24632251,0.09764596,-0.08911541,0.23664807,48.814309,-42.96287)" d="m 182.2626,172.15922 -11.05022,-3.97264 -9.5371,6.85075 0.3635,-11.73699 -9.46258,-6.95333 11.27488,-3.28122 3.68891,-11.14815 6.60475,9.7091 11.74245,0.0634 -7.19291,9.28177 z" />
  <path style="opacity:1;fill:#004000;fill-opacity:1;stroke:none;stroke-width:1.99181;stroke-miterlimit:4;stroke-dasharray:none" id="medium-star" transform="matrix(0.20953991,9.0060668e-4,-0.00321018,0.21196052,-31.392397,-22.80287)" d="m 198.20802,185.93367 -11.05022,-3.97265 -9.5371,6.85076 0.3635,-11.737 -9.46258,-6.95333 11.27488,-3.28122 3.6889,-11.14814 6.60476,9.70909 11.74245,0.0634 -7.19292,9.28176 z" />
  <path style="opacity:1;fill:#004000;fill-opacity:1;stroke:none;stroke-width:1.99181;stroke-miterlimit:4;stroke-dasharray:none" id="small-star" transform="matrix(0.1513132,-0.01949801,0.01608197,0.14860386,9.106176,-17.11158)" d="m 108.0361,192.43193 -11.050218,-3.97265 -9.537106,6.85076 0.363504,-11.737 -9.46258,-6.95333 11.274875,-3.28121 3.688909,-11.14815 6.604752,9.70909 11.742454,0.0634 -7.19292,9.28176 z" />
  <path id="mountain" style="fill:#004000;fill-opacity:1;stroke-width:0.264304" d="m 44.999999,0 c -1.61021,0 -22.248165,31.11635 -23.126578,31.11375 -0.878412,-0.003 -6.576372,-5.6362 -7.181637,-5.61284 -0.605265,0.0234 -16.045261,19.45746 -14.59581996,19.45746 1.44944096,0 14.65680696,-17.25385 15.15126496,-17.09533 0.494458,0.15852 -2.870017,4.89983 -2.61149,5.24024 0.258527,0.3404 3.2078,-2.36439 3.501984,-2.20063 0.294185,0.16376 -1.548129,2.04134 -1.125855,2.37603 0.321652,1.03011 1.827369,-1.20925 3.612118,-0.0191 1.171444,0.95943 -2.979372,5.06722 -2.18314,4.98909 2.794437,-0.47136 28.758793,-30.06906 29.823183,-28.99093 1.06439,1.07814 -13.525867,18.46003 -12.821815,19.09118 0.704052,0.63114 14.410065,-12.80202 15.462915,-11.71075 1.05286,1.09128 -4.41702,9.15444 -4.5737,13.41147 -0.15669,4.25704 7.6411,-4.34288 8.68922,-3.38503 0.9954,0.90966 -1.84156,8.73259 -0.61055,9.69367 1.12589,0.879 8.96547,-3.1743 6.11546,0.57948 -2.85001,3.75377 8.46779,0.52106 9.0413,1.41547 0.56298,1.0025 -4.84152,3.75717 -4.4769,4.11835 0.32986,0.32676 12.5419,-6.1686 14.86244,-4.58801 0.45008,0.43398 -3.95008,2.8217 -3.41131,3.15364 0.53877,0.33195 7.46325,-4.20139 9.86667,-0.99259 2.40342,3.20879 5.24672,5.27887 5.58171,4.9137 0.33499,-0.36517 -7.43145,-10.94866 -7.83847,-10.94923 -0.40703,-5.7e-4 -1.45592,2.37154 -2.06512,2.31022 C 79.571449,36.31863 46.610209,0 44.999999,0 Z" />
</svg>
